<svg width="1014" height="124" viewBox="0 0 1014 124" fill="none" xmlns="http://www.w3.org/2000/svg">
<path d="M618.19 88.62L618.49 121.05H525.63V115.7L539.7 114.32C539.96 106.42 540.103 98.44 540.13 90.38C540.157 82.32 540.157 74.21 540.13 66.05V59.17C540.13 51.01 540.13 42.89 540.13 34.81C540.13 26.73 539.987 18.66 539.7 10.6L525.63 9.41V4.06H615.2L615.05 35.27H606.05L598.79 10.18H567.01C566.857 18.0333 566.77 25.9867 566.75 34.04C566.73 42.0933 566.73 50.28 566.75 58.6H587.97L590.37 41.19H598.18V80.82H590.37L588.15 64.22H566.71V64.68C566.71 73.3467 566.71 81.85 566.71 90.19C566.71 98.53 566.797 106.777 566.97 114.93H602.16L609.43 88.62H618.19Z" fill="#36B6DD"/>
<path d="M791.13 117.41L799.82 118.23V122.16H761.07V118.21L769.88 117.39C769.92 113.23 769.973 108.93 770.04 104.49C770.107 100.05 770.137 95.79 770.13 91.71V26.14L760.76 25.27V21.89L789.45 16.39L791.26 17.58L790.76 38.21V91.71C790.76 95.83 790.79 100.1 790.85 104.52C790.91 108.94 791.003 113.237 791.13 117.41Z" fill="#36B6DD"/>
<path d="M1005.52 116.55L1013.84 117.11V121.05L986.46 122.61L985.4 114.68C982.797 117.292 979.75 119.419 976.4 120.96C972.996 122.5 969.296 123.278 965.56 123.24C960.19 123.303 954.92 121.791 950.4 118.89C945.725 115.812 942.001 111.49 939.65 106.41C936.983 100.963 935.65 94.38 935.65 86.66C935.65 78.66 937.077 71.86 939.93 66.26C942.461 60.9877 946.426 56.5344 951.37 53.41C956.185 50.4707 961.729 48.9459 967.37 49.01C974.623 49.01 980.707 51.9067 985.62 57.7V25.2L975.18 24.2V20.82L1004.18 15.32L1005.99 16.51L1005.49 36.95L1005.52 116.55ZM984.9 110.8V61.18C983.516 60.0166 981.925 59.1244 980.21 58.55C978.675 58.0576 977.072 57.8046 975.46 57.8C972.3 57.773 969.198 58.6508 966.52 60.33C963.807 62.0233 961.653 64.91 960.06 68.99C958.467 73.07 957.663 78.6933 957.65 85.86C957.65 92.82 958.4 98.3633 959.9 102.49C961.4 106.617 963.463 109.583 966.09 111.39C968.671 113.194 971.751 114.145 974.9 114.11C976.657 114.115 978.406 113.862 980.09 113.36C981.84 112.816 983.472 111.948 984.9 110.8V110.8Z" fill="#36B6DD"/>
<path d="M751.6 65.86C748.484 60.5161 743.941 56.146 738.48 53.24C732.817 50.2608 726.498 48.7448 720.1 48.83C715.483 48.798 710.898 49.5905 706.56 51.17L686.99 102.17C687.42 103.17 687.89 104.24 688.41 105.23C691.272 110.742 695.655 115.316 701.04 118.41C706.863 121.641 713.443 123.26 720.1 123.1C726.744 123.25 733.313 121.668 739.16 118.51C744.575 115.497 749.003 110.982 751.91 105.51C754.957 99.8767 756.48 93.25 756.48 85.63C756.48 78.01 754.853 71.42 751.6 65.86ZM730.7 110.55C728.26 115.883 724.727 118.55 720.1 118.55C715.473 118.55 711.943 115.883 709.51 110.55C707.03 105.217 705.79 96.9767 705.79 85.83C705.79 74.6833 707.03 66.4667 709.51 61.18C711.99 55.9467 715.52 53.33 720.1 53.33C724.68 53.33 728.213 55.9467 730.7 61.18C733.127 66.4067 734.343 74.6233 734.35 85.83C734.357 97.0367 733.14 105.277 730.7 110.55Z" fill="#36B6DD"/>
<path d="M924.09 63.55C921.844 59.1473 918.371 55.4898 914.09 53.02C909.69 50.42 904.283 49.1167 897.87 49.11C893.315 49.116 888.796 49.9216 884.52 51.49C883.85 51.74 883.18 52.01 882.52 52.29L863.77 101.21C866.509 108.842 871.992 115.181 879.15 118.99C884.975 121.974 891.446 123.475 897.99 123.36C904.041 123.491 910.007 121.921 915.21 118.83C920.172 115.784 924.121 111.337 926.56 106.05L924.12 104.55C922.116 107.374 919.553 109.757 916.59 111.55C913.173 113.335 909.368 114.249 905.512 114.211C901.657 114.172 897.871 113.183 894.49 111.33C890.974 109.182 888.187 106.025 886.49 102.27C884.49 98.15 883.377 92.7533 883.15 86.08H926.65C926.977 84.8966 927.188 83.6842 927.28 82.46C927.36 81.25 927.4 79.86 927.4 78.27C927.486 73.1696 926.351 68.1227 924.09 63.55ZM906.65 79.02C905.65 80.6667 903.63 81.49 900.59 81.49L883.21 81.36C883.463 71.4467 884.86 64.3433 887.4 60.05C889.94 55.7567 892.98 53.61 896.52 53.61C898.158 53.5965 899.775 53.9829 901.23 54.7357C902.685 55.4886 903.935 56.585 904.87 57.93C907.05 60.7967 908.143 65.0233 908.15 70.61C908.15 74.57 907.65 77.3733 906.65 79.02V79.02Z" fill="#36B6DD"/>
<path d="M699.24 51.18V54.99L690.18 56.43L665.31 121.3H656.49L630.74 56.05L622.87 54.99V51.18H662.12V54.99L652.93 56.05L668.93 101.86L684.31 56.3L674.31 54.99V51.18H699.24Z" fill="#36B6DD"/>
<path d="M876.2 51.18V54.99L867.13 56.43L842.26 121.3H833.45L807.7 56.05L799.82 54.99V51.18H839.07V54.99L829.88 56.05L845.88 101.86L861.26 56.3L851.26 54.99V51.18H876.2Z" fill="#36B6DD"/>
<path d="M0 0H56.87C67.1833 0 75.43 1.22334 81.61 3.67001C87.79 6.11667 92.2333 9.47001 94.94 13.73C97.6795 18.0968 99.0901 23.1659 99 28.32C99.0075 32.3922 97.9749 36.3988 96 39.96C94 43.66 90.53 46.92 85.59 49.74C80.65 52.56 73.88 54.73 65.28 56.25C79.8133 57.69 90.2667 61.0767 96.64 66.41C99.7035 68.8977 102.156 72.0542 103.81 75.6373C105.464 79.2204 106.274 83.1348 106.18 87.08C106.151 91.1695 105.294 95.2108 103.66 98.96C101.724 103.246 98.7557 106.984 95.02 109.84C90.94 113.133 85.35 115.763 78.25 117.73C71.15 119.697 62.13 120.697 51.19 120.73H0V115.21L14.51 113.79C14.77 105.317 14.9133 96.73 14.94 88.03C14.9667 79.33 14.9667 70.64 14.94 61.96V56.12C14.94 47.86 14.94 39.6167 14.94 31.39C14.94 23.1633 14.7967 14.97 14.51 6.81001L0 5.55V0ZM49.77 6.15H42.12C41.9133 14.0367 41.7833 22.0067 41.73 30.06C41.6766 38.1133 41.65 46.29 41.65 54.59H47.96C56.2667 54.59 62.5 52.3667 66.66 47.92C70.82 43.4733 72.8967 37.2567 72.89 29.27C72.89 21.8967 71.0766 16.2033 67.45 12.19C63.8233 8.17667 57.93 6.16333 49.77 6.15V6.15ZM42.12 114.7H50.37C59.0967 114.7 65.9067 112.4 70.8 107.8C75.6933 103.2 78.14 96.4567 78.14 87.57C78.14 78.2367 75.8067 71.3733 71.14 66.98C66.4733 62.5867 59.2467 60.3967 49.46 60.41H41.65C41.65 70.03 41.6766 79.3267 41.73 88.3C41.7833 97.2733 41.9133 106.073 42.12 114.7V114.7Z" fill="#36B6DD"/>
<path d="M144.18 115.95L151.99 116.76V120.7H114.62V116.76L123.06 115.95C123.1 113.45 123.14 110.657 123.18 107.57C123.22 104.483 123.25 101.423 123.27 98.39C123.27 95.35 123.27 92.64 123.27 90.26V80.01C123.27 75.89 123.27 72.43 123.17 69.64C123.07 66.85 123.02 63.8 122.89 60.51L113.27 59.51V56.41L142.58 48.72L144.39 50.03L143.89 70.47V90.22C143.89 92.6 143.89 95.32 143.89 98.38C143.89 101.44 143.923 104.513 143.99 107.6C144.077 110.707 144.14 113.49 144.18 115.95ZM133.18 35.95C130.32 36.0023 127.549 34.9615 125.43 33.04C124.37 32.1124 123.529 30.9614 122.967 29.6697C122.405 28.3781 122.136 26.9779 122.18 25.57C122.142 24.1541 122.413 22.747 122.975 21.4466C123.536 20.1462 124.374 18.9837 125.43 18.04C127.53 16.0787 130.307 15.0039 133.18 15.04C136.081 14.9972 138.888 16.0713 141.02 18.04C142.086 18.9783 142.932 20.1388 143.501 21.4398C144.069 22.7408 144.345 24.1507 144.31 25.57C144.351 26.9813 144.077 28.3842 143.508 29.6763C142.939 30.9685 142.089 32.1176 141.02 33.04C138.87 34.9681 136.068 36.0081 133.18 35.95Z" fill="#36B6DD"/>
<path d="M236.87 115.95L244.68 116.76V120.7H207.31V116.76L215.74 115.95C215.74 113.45 215.83 110.66 215.87 107.57C215.91 104.48 215.94 101.43 215.96 98.39C215.98 95.35 215.96 92.64 215.96 90.26V80.01C215.96 75.89 215.93 72.4333 215.87 69.64C215.81 66.85 215.71 63.8 215.59 60.51L205.96 59.51V56.41L235.28 48.72L237.09 50.03L236.59 70.47V90.22C236.59 92.6 236.59 95.32 236.59 98.38C236.59 101.44 236.62 104.513 236.68 107.6C236.78 110.72 236.83 113.49 236.87 115.95ZM225.87 35.95C223.01 36.0043 220.237 34.9633 218.12 33.04C217.06 32.1124 216.219 30.9614 215.657 29.6698C215.095 28.3781 214.826 26.9779 214.87 25.57C214.832 24.1541 215.103 22.747 215.665 21.4466C216.226 20.1462 217.064 18.9837 218.12 18.04C220.219 16.0769 222.996 15.0019 225.87 15.04C228.771 14.9993 231.577 16.0731 233.71 18.04C234.774 18.9788 235.62 20.1396 236.186 21.4407C236.753 22.7418 237.027 24.1513 236.99 25.57C237.033 26.9807 236.761 28.3832 236.194 29.6754C235.626 30.9677 234.778 32.1171 233.71 33.04C231.559 34.9664 228.757 36.0061 225.87 35.95Z" fill="#36B6DD"/>
<path d="M282.06 36.76V57.57C284.89 54.72 288.259 52.4624 291.971 50.9291C295.683 49.3959 299.664 48.6177 303.68 48.64C308.806 48.5761 313.835 50.0456 318.12 52.86C322.636 55.9429 326.173 60.2569 328.31 65.29C330.81 70.77 332.06 77.51 332.06 85.51C332.157 92.0334 330.89 98.505 328.34 104.51C326.118 109.831 322.513 114.461 317.9 117.92C313.32 121.244 307.778 122.979 302.12 122.86C298.343 122.879 294.601 122.134 291.12 120.67C287.509 119.114 284.311 116.738 281.78 113.73L279.09 120.67H252.99V116.73L261.43 115.92C261.47 113.46 261.513 110.69 261.56 107.61C261.607 104.53 261.637 101.457 261.65 98.39C261.65 95.33 261.65 92.61 261.65 90.23V24.7L252.28 23.82V20.41L280.59 14.91L282.4 16.1L282.06 36.76ZM282.31 61.32V110.2C283.852 111.428 285.609 112.36 287.49 112.95C289.297 113.492 291.174 113.765 293.06 113.76C295.992 113.747 298.865 112.935 301.37 111.41C303.97 109.87 306.063 107.027 307.65 102.88C309.237 98.7334 310.03 92.7634 310.03 84.97C310.03 74.97 308.457 67.8767 305.31 63.69C302.163 59.5034 298.203 57.41 293.43 57.41C291.535 57.397 289.646 57.6289 287.81 58.1C285.755 58.7399 283.874 59.8413 282.31 61.32V61.32Z" fill="#36B6DD"/>
<path d="M370.87 115.95L378.68 116.76V120.7H341.31V116.76L349.74 115.95C349.74 113.45 349.83 110.66 349.87 107.57C349.91 104.48 349.94 101.43 349.96 98.39C349.98 95.35 349.96 92.64 349.96 90.26V80.01C349.96 75.89 349.93 72.4333 349.87 69.64C349.81 66.85 349.71 63.8 349.59 60.51L339.96 59.51V56.41L369.28 48.72L371.09 50.03L370.59 70.47V90.22C370.59 92.6 370.59 95.32 370.59 98.38C370.59 101.44 370.62 104.513 370.68 107.6C370.78 110.72 370.83 113.49 370.87 115.95ZM359.87 35.95C357.01 36.0043 354.237 34.9633 352.12 33.04C351.06 32.1124 350.219 30.9614 349.657 29.6698C349.095 28.3781 348.826 26.9779 348.87 25.57C348.832 24.1541 349.103 22.747 349.665 21.4466C350.226 20.1462 351.064 18.9837 352.12 18.04C354.219 16.0769 356.996 15.0019 359.87 15.04C362.771 14.9993 365.577 16.0731 367.71 18.04C368.774 18.9788 369.62 20.1396 370.186 21.4407C370.753 22.7418 371.027 24.1513 370.99 25.57C371.033 26.9807 370.761 28.3832 370.194 29.6754C369.626 30.9677 368.778 32.1171 367.71 33.04C365.559 34.9664 362.757 36.0061 359.87 35.95V35.95Z" fill="#36B6DD"/>
<path d="M463.56 115.95L471.37 116.76V120.7H433.99V116.76L442.43 115.95C442.47 113.45 442.513 110.657 442.56 107.57C442.607 104.483 442.637 101.423 442.65 98.39C442.65 95.35 442.65 92.64 442.65 90.26V80.01C442.65 75.89 442.62 72.4333 442.56 69.64C442.49 66.85 442.4 63.8 442.28 60.51L432.65 59.51V56.41L461.96 48.72L463.78 50.03L463.28 70.47V90.22C463.28 92.6 463.28 95.32 463.28 98.38C463.28 101.44 463.31 104.513 463.37 107.6C463.45 110.707 463.513 113.49 463.56 115.95ZM452.56 35.95C449.7 36.0043 446.927 34.9633 444.81 33.04C443.75 32.1124 442.909 30.9614 442.347 29.6698C441.785 28.3781 441.516 26.9779 441.56 25.57C441.522 24.1541 441.793 22.747 442.355 21.4466C442.916 20.1462 443.754 18.9837 444.81 18.04C446.909 16.0769 449.686 15.0019 452.56 15.04C455.461 14.9993 458.267 16.0731 460.4 18.04C461.464 18.9788 462.31 20.1396 462.876 21.4407C463.443 22.7418 463.717 24.1513 463.68 25.57C463.723 26.9807 463.451 28.3832 462.884 29.6754C462.316 30.9677 461.468 32.1171 460.4 33.04C458.249 34.9664 455.447 36.0061 452.56 35.95V35.95Z" fill="#36B6DD"/>
<path d="M168.99 82.08L189.91 24.88L190.12 16.14L188.31 14.95L159.62 20.45V23.82L168.99 24.7V82.08Z" fill="#36B6DD"/>
<path d="M189.71 103.07C189.65 98.6633 189.62 94.3933 189.62 90.26V58.87L168.76 115.87L159.95 116.68V120.62H198.7V116.68L190.01 115.87C189.877 111.757 189.777 107.49 189.71 103.07Z" fill="#36B6DD"/>
<path d="M395.68 81.67L416.61 24.44L416.81 16.14L414.99 14.95L386.31 20.45V23.82L395.68 24.7V81.67Z" fill="#36B6DD"/>
<path d="M416.37 103.07C416.31 98.6633 416.28 94.3933 416.28 90.26V58.47L395.41 115.55C395.41 115.68 395.41 115.82 395.41 115.95L386.6 116.76V120.7H425.37V116.76L416.68 115.95C416.56 111.783 416.457 107.49 416.37 103.07Z" fill="#36B6DD"/>
</svg>
